<?xml version="1.0" standalone="no"?>
<!DOCTYPE svg PUBLIC "-//W3C//DTD SVG 20010904//EN"
 "http://www.w3.org/TR/2001/REC-SVG-20010904/DTD/svg10.dtd">
<svg version="1.0" xmlns="http://www.w3.org/2000/svg"
 width="1200.000000pt" height="1200.000000pt" viewBox="0 0 1200.000000 1200.000000"
 preserveAspectRatio="xMidYMid meet">
<metadata>
Created by potrace 1.11, written by Peter Selinger 2001-2013
</metadata>
<g transform="translate(0.000000,1200.000000) scale(0.100000,-0.100000)"
fill="#000000" stroke="none">
<path d="M5830 8974 c-804 -37 -1530 -269 -2145 -685 -663 -448 -1116 -1073
-1295 -1784 -56 -222 -72 -348 -78 -605 -7 -356 17 -774 59 -1029 56 -340 152
-517 327 -605 146 -74 943 -379 2002 -768 636 -233 891 -326 1078 -394 112
-40 208 -76 213 -80 5 -3 15 -1 22 4 7 5 48 22 92 37 44 15 159 57 255 92 96
35 254 93 350 128 1339 487 2368 876 2556 965 125 60 197 132 255 255 96 202
138 459 160 974 29 674 -52 1118 -292 1601 -148 297 -321 533 -578 790 -298
297 -560 486 -931 671 -557 278 -1139 418 -1795 432 -99 3 -214 3 -255 1z
m-1485 -2179 c290 -51 551 -262 611 -495 68 -266 -168 -504 -601 -605 -124
-29 -156 -32 -381 -45 -264 -15 -543 -64 -931 -166 -144 -37 -426 -117 -457
-130 -18 -7 -19 -4 -12 35 47 297 427 809 816 1102 341 256 655 356 955 304z
m3695 -14 c473 -121 1025 -611 1293 -1147 64 -128 113 -292 84 -281 -41 16
-390 113 -542 151 -386 97 -595 132 -865 146 -213 12 -357 35 -492 80 -344
115 -519 310 -481 534 42 248 300 472 611 531 101 19 290 12 392 -14z m-1770
-546 c343 -61 652 -218 907 -459 268 -254 407 -570 349 -796 -71 -274 -441
-626 -891 -846 -238 -116 -475 -184 -639 -184 -132 0 -321 48 -523 131 -403
167 -811 500 -953 779 -131 258 -44 558 250 864 133 137 261 235 430 328 155
85 386 163 560 187 41 6 89 13 105 15 60 9 322 -4 405 -19z"/>
<path d="M4205 6587 c-253 -64 -362 -345 -217 -557 98 -143 256 -191 458 -140
101 26 177 63 232 114 63 58 84 105 83 186 -2 179 -123 325 -318 383 -76 23
-179 29 -238 14z m241 -141 c88 -41 134 -118 134 -222 -1 -169 -190 -280 -344
-203 -82 40 -127 117 -127 212 0 176 176 288 337 213z"/>
<path d="M4275 6361 c-53 -33 -69 -58 -72 -119 -5 -68 17 -111 69 -138 102
-53 218 18 218 133 0 106 -126 179 -215 124z"/>
<path d="M7625 6590 c-163 -25 -316 -137 -365 -267 -30 -80 -31 -184 -3 -239
88 -169 417 -268 605 -182 149 69 236 232 208 390 -15 80 -41 132 -99 191 -53
56 -114 90 -189 106 -58 12 -82 12 -157 1z m134 -145 c93 -46 135 -121 129
-226 -3 -52 -10 -77 -33 -114 -91 -145 -309 -145 -400 0 -36 58 -46 158 -23
215 54 127 207 186 327 125z"/>
<path d="M7582 6360 c-126 -77 -74 -273 72 -273 54 0 99 24 126 68 30 49 25
133 -11 171 -53 57 -127 70 -187 34z"/>
<path d="M5815 5996 c-228 -45 -388 -157 -410 -287 -10 -56 17 -127 67 -177
40 -41 42 -41 55 -22 18 25 80 27 129 4 44 -21 94 -78 94 -109 0 -21 7 -25 58
-37 31 -7 117 -13 192 -13 75 0 161 6 193 13 50 12 57 16 57 37 0 31 50 88 94
109 48 23 111 21 129 -4 13 -19 15 -18 55 23 78 79 89 170 32 260 -49 78 -176
154 -320 192 -88 23 -331 29 -425 11z"/>
<path d="M4584 5216 c-20 -32 -12 -46 56 -97 172 -129 377 -208 633 -244 162
-23 1289 -23 1449 -1 258 37 468 118 638 245 68 51 76 65 56 97 -24 35 -54 30
-126 -22 -140 -102 -322 -177 -511 -211 -94 -16 -168 -18 -784 -18 -622 0
-689 2 -780 19 -193 36 -358 104 -500 206 -78 56 -107 62 -131 26z"/>
</g>
</svg>
